<svg xmlns="http://www.w3.org/2000/svg" fill="none" viewBox="0 0 38 40"><path fill="#000" d="m29.731 19.683-14 15a1 1 0 0 1-1.711-.876l1.832-9.166-7.203-2.705a1 1 0 0 1-.375-1.625l14-15a1 1 0 0 1 1.711.875l-1.837 9.177 7.203 2.7a.999.999 0 0 1 .375 1.62h.005ZM33 35h5v4a1 1 0 0 1-1 1h-4v-5ZM0 1a1 1 0 0 1 1-1h4v40H1a1 1 0 0 1-1-1V1Z"/><path fill="#000" d="M5 0h6a1 1 0 0 1 1 1v3a1 1 0 0 1-1 1H5V0ZM5 35h6a1 1 0 0 1 1 1v3a1 1 0 0 1-1 1H5v-5ZM33 0l3 3 2 2v30h-5V0ZM26 1a1 1 0 0 1 1-1h6v5h-6a1 1 0 0 1-1-1V1ZM26 36a1 1 0 0 1 1-1h6v5h-6a1 1 0 0 1-1-1v-3Z"/></svg>